<?xml version="1.0" encoding="iso-8859-1"?>
<!-- Generator: Adobe Illustrator 21.0.0, SVG Export Plug-In . SVG Version: 6.00 Build 0)  -->
<svg version="1.1" id="Layer_1" xmlns="http://www.w3.org/2000/svg" xmlns:xlink="http://www.w3.org/1999/xlink" x="0px" y="0px"
	 viewBox="0 0 546.536 85.2" style="enable-background:new 0 0 546.536 85.2;" xml:space="preserve">
<g>
	<path id="path-12_2_" style="fill:#FFFFFF;" d="M58.664,40.723c-0.9,0.9-1.3,2-1.3,3.3s0.4,2.4,1.3,3.3c0.9,0.9,2,1.4,3.3,1.4
		s2.4-0.4,3.2-1.4c0.9-0.9,1.3-2,1.3-3.3s-0.4-2.4-1.3-3.3c-0.9-0.9-2-1.3-3.2-1.3C60.564,39.423,59.564,39.823,58.664,40.723"/>
</g>
<g>
	<path id="path-10_2_" style="fill:#FFFFFF;" d="M39.614,40.723c-0.9,0.9-1.3,2-1.3,3.3s0.4,2.4,1.3,3.3c0.9,0.9,2,1.4,3.3,1.4
		s2.3-0.4,3.2-1.4c0.9-0.9,1.3-2,1.3-3.3s-0.4-2.4-1.3-3.3c-0.9-0.9-2-1.3-3.2-1.3C41.514,39.423,40.414,39.823,39.614,40.723"/>
</g>
<g>
	<path id="path-5_2_" style="fill:#FFFFFF;" d="M20.464,40.723c-0.9,0.9-1.3,2-1.3,3.3s0.4,2.4,1.3,3.3c0.9,0.9,2,1.4,3.3,1.4
		s2.4-0.4,3.2-1.4c0.9-0.9,1.3-2,1.3-3.3s-0.4-2.4-1.3-3.3c-0.9-0.9-2-1.3-3.2-1.3C22.464,39.423,21.364,39.823,20.464,40.723"/>
</g>
<g>
	<path id="path-1_2_" style="fill:#FFFFFF;" d="M42.1,5.236c-5.3,0.1-10.3,1.1-14.9,3.1s-8.7,4.8-12.1,8.4
		c-3.5,3.5-6.2,7.7-8.1,12.4c-2,4.7-2.9,9.7-2.9,15.1c0.1,5.1,1.1,9.8,3,14.2s4.2,8.2,7.2,11.5c1,1.1,1.5,2.2,1.7,3.4
		c0,1.1-0.5,2-1.6,2.6c-2.1,1.2-4.7,2.1-8,2.6c-0.5,0.1,0.7,0.6,3.6,1.6c2.9,0.9,7.4,1.7,13.5,2.4c2.7,0.2,5.2,0.4,7.4,0.4
		c2.2,0.1,4.2,0.1,6,0s3.4-0.1,4.9-0.3c1.5-0.1,2.8-0.3,4.2-0.4c4.9-0.5,9.5-1.9,13.8-4.1s8-5,11.1-8.5c3.1-3.4,5.6-7.4,7.4-11.9
		s2.7-9.2,2.6-14.4c-0.1-5.3-1.1-10.4-3.2-15c-2.1-4.7-4.8-8.7-8.4-12.2c-3.5-3.4-7.6-6.1-12.3-8.1c-4.5-1.9-9.4-2.9-14.5-2.9
		C42.4,5.236,42.2,5.236,42.1,5.236"/>
</g>
<title>180*180 copy 9</title>
<desc>Created with Sketch.</desc>
<title>180*180</title>
<desc>Created with Sketch.</desc>
<g id="CC-&#x56DE;&#x590D;&#x6837;&#x5F0F;-Copy-2" transform="translate(-720.000000, -122.000000)">
	<g id="Group" transform="translate(731.000000, 122.000000)">
		<g id="Group-3" transform="translate(0.000000, 1.246097)">
			<g id="Clip-2">
			</g>
			<path id="Fill-1" style="fill:none;" d="M31.1,1.8c-5.3,0.1-10.3,1.1-14.9,3.1S7.5,9.7,4.1,13.3C0.6,16.8-2.1,21-4,25.7
				c-2,4.7-2.9,9.7-2.9,15.1c0.1,5.1,1.1,9.8,3,14.2s4.2,8.2,7.2,11.5c1,1.1,1.5,2.2,1.7,3.4c0,1.1-0.5,2-1.6,2.6
				c-2.1,1.2-4.7,2.1-8,2.6c-0.5,0.1,0.7,0.6,3.6,1.6c2.9,0.9,7.4,1.7,13.5,2.4c2.7,0.2,5.2,0.4,7.4,0.4c2.2,0.1,4.2,0.1,6,0
				c1.8-0.1,3.4-0.1,4.9-0.3c1.5-0.1,2.8-0.3,4.2-0.4c4.9-0.5,9.5-1.9,13.8-4.1s8-5,11.1-8.5c3.1-3.4,5.6-7.4,7.4-11.9
				s2.7-9.2,2.6-14.4c-0.1-5.3-1.1-10.4-3.2-15c-2.1-4.7-4.8-8.7-8.4-12.2C54.8,9.3,50.7,6.6,46,4.6c-4.5-1.9-9.4-2.9-14.5-2.9
				C31.4,1.8,31.2,1.8,31.1,1.8"/>
		</g>
		
			<linearGradient id="Stroke-4_1_" gradientUnits="userSpaceOnUse" x1="-1891.0792" y1="-296.9006" x2="-1891.0792" y2="-296.7524" gradientTransform="matrix(518.0765 0 0 524.3911 979755.1875 155695.0156)">
			<stop  offset="0" style="stop-color:#9CEC64"/>
			<stop  offset="0.1872" style="stop-color:#8DE050"/>
			<stop  offset="1" style="stop-color:#7DD83D"/>
		</linearGradient>
		
			<linearGradient id="Stroke-4_2_" gradientUnits="userSpaceOnUse" x1="-1891.0792" y1="-296.9688" x2="-1891.0792" y2="-296.684" gradientTransform="matrix(518.0765 0 0 524.3911 979755.1875 155695.0156)">
			<stop  offset="0" style="stop-color:#AAFF70"/>
			<stop  offset="1" style="stop-color:#8ADA36"/>
		</linearGradient>
		<path id="Stroke-4" style="fill:url(#Stroke-4_1_);stroke:url(#Stroke-4_2_);stroke-width:2.39;" d="M31.1,3
			c5.3-0.1,10.3,0.9,15,2.9s8.7,4.7,12.3,8.2c3.5,3.5,6.3,7.5,8.4,12.2s3.1,9.7,3.2,15c0.1,5.1-0.8,9.9-2.6,14.4
			c-1.8,4.5-4.3,8.4-7.4,11.9c-3.1,3.5-6.9,6.3-11.1,8.5c-4.3,2.2-8.9,3.6-13.8,4.1c-1.3,0.2-2.7,0.3-4.2,0.4s-3.1,0.2-4.9,0.3
			c-1.8,0.1-3.8,0.1-6,0s-4.6-0.2-7.4-0.4C6.4,79.7,1.9,78.9-1,77.9c-2.9-0.9-4.1-1.5-3.6-1.6c3.3-0.5,5.9-1.4,8-2.6
			C4.5,73.1,5,72.2,4.8,71s-0.7-2.3-1.7-3.4c-2.9-3.3-5.3-7.1-7.2-11.5S-6.9,47.1-7,42c-0.1-5.3,0.9-10.4,2.9-15.1S0.6,18.1,4,14.5
			c3.5-3.5,7.5-6.3,12.1-8.4C20.8,4.1,25.7,3.1,31.1,3z"/>
		<g id="Group-8" transform="translate(94.464286, 229.333871)">
			<g id="Clip-7">
			</g>
			
				<linearGradient id="Fill-6_1_" gradientUnits="userSpaceOnUse" x1="-2256.7271" y1="-277.0135" x2="-2256.7271" y2="-276.8651" gradientTransform="matrix(61.8552 0 0 62.2299 139508.5625 17046.1484)">
				<stop  offset="0" style="stop-color:#FFFFFF"/>
				<stop  offset="1" style="stop-color:#000000"/>
			</linearGradient>
			<path id="Fill-6" style="fill:url(#Fill-6_1_);" d="M-85-191.1c-0.9,0.9-1.3,2-1.3,3.3s0.4,2.4,1.3,3.3c0.9,0.9,2,1.4,3.3,1.4
				s2.4-0.4,3.2-1.4c0.9-0.9,1.3-2,1.3-3.3s-0.4-2.4-1.3-3.3c-0.9-0.9-2-1.3-3.2-1.3C-83-192.4-84.1-192-85-191.1"/>
		</g>
		
			<linearGradient id="Stroke-9_1_" gradientUnits="userSpaceOnUse" x1="-1878.8694" y1="-277.0135" x2="-1878.8694" y2="-276.8652" gradientTransform="matrix(61.8552 0 0 62.2299 116230.5938 17275.4805)">
			<stop  offset="0" style="stop-color:#04641C"/>
			<stop  offset="1" style="stop-color:#1D7825"/>
		</linearGradient>
		
			<linearGradient id="Stroke-9_2_" gradientUnits="userSpaceOnUse" x1="-1878.8694" y1="-277.0707" x2="-1878.8694" y2="-276.808" gradientTransform="matrix(61.8552 0 0 62.2299 116230.5938 17275.4805)">
			<stop  offset="0" style="stop-color:#1D7825"/>
			<stop  offset="1" style="stop-color:#389230"/>
		</linearGradient>
		<path id="Stroke-9" style="fill:url(#Stroke-9_1_);stroke:url(#Stroke-9_2_);stroke-width:0.8763;" d="M8.2,41.5
			c0,1.3,0.4,2.4,1.3,3.3c0.9,0.9,2,1.4,3.3,1.4s2.4-0.4,3.2-1.4c0.9-0.9,1.3-2,1.3-3.3s-0.4-2.4-1.3-3.3c-0.9-0.9-2-1.3-3.2-1.3
			c-1.3,0-2.4,0.4-3.3,1.3C8.6,39.1,8.2,40.2,8.2,41.5z"/>
		<g id="Group-13" transform="translate(226.714286, 229.333871)">
			<g id="Clip-12">
			</g>
			
				<linearGradient id="Fill-11_1_" gradientUnits="userSpaceOnUse" x1="-2787.5002" y1="-277.0135" x2="-2787.5002" y2="-276.8651" gradientTransform="matrix(61.8552 0 0 62.2299 172226.5469 17046.1484)">
				<stop  offset="0" style="stop-color:#04641C"/>
				<stop  offset="1" style="stop-color:#1D7825"/>
			</linearGradient>
			
				<linearGradient id="Fill-11_2_" gradientUnits="userSpaceOnUse" x1="-2787.5002" y1="-277.0707" x2="-2787.5002" y2="-276.8078" gradientTransform="matrix(61.8552 0 0 62.2299 172226.5469 17046.1484)">
				<stop  offset="0" style="stop-color:#1D7825"/>
				<stop  offset="1" style="stop-color:#389230"/>
			</linearGradient>
			<path id="Fill-11" style="fill:url(#Fill-11_1_);stroke:url(#Fill-11_2_);stroke-width:0.8763;" d="M-198.1-191.1
				c-0.9,0.9-1.3,2-1.3,3.3s0.4,2.4,1.3,3.3c0.9,0.9,2,1.4,3.3,1.4s2.3-0.4,3.2-1.4c0.9-0.9,1.3-2,1.3-3.3s-0.4-2.4-1.3-3.3
				c-0.9-0.9-2-1.3-3.2-1.3C-196.2-192.4-197.3-192-198.1-191.1"/>
		</g>
		<g id="Group-18" transform="translate(358.964286, 229.333871)">
			<g id="Clip-17">
			</g>
			
				<linearGradient id="Fill-16_1_" gradientUnits="userSpaceOnUse" x1="-3318.2727" y1="-277.0135" x2="-3318.2727" y2="-276.8651" gradientTransform="matrix(61.8552 0 0 62.2299 204944.375 17046.1484)">
				<stop  offset="0" style="stop-color:#04641C"/>
				<stop  offset="1" style="stop-color:#1D7825"/>
			</linearGradient>
			
				<linearGradient id="Fill-16_2_" gradientUnits="userSpaceOnUse" x1="-3318.2727" y1="-277.0707" x2="-3318.2727" y2="-276.8078" gradientTransform="matrix(61.8552 0 0 62.2299 204944.375 17046.1484)">
				<stop  offset="0" style="stop-color:#1D7825"/>
				<stop  offset="1" style="stop-color:#389230"/>
			</linearGradient>
			<path id="Fill-16" style="fill:url(#Fill-16_1_);stroke:url(#Fill-16_2_);stroke-width:0.8763;" d="M-311.3-191.1
				c-0.9,0.9-1.3,2-1.3,3.3s0.4,2.4,1.3,3.3c0.9,0.9,2,1.4,3.3,1.4s2.4-0.4,3.2-1.4c0.9-0.9,1.3-2,1.3-3.3s-0.4-2.4-1.3-3.3
				c-0.9-0.9-2-1.3-3.2-1.3C-309.4-192.4-310.4-192-311.3-191.1"/>
		</g>
	</g>
</g>
<g>
	<path style="fill:#F4F4F4;" d="M143.955,51.545c-0.578,5.774-2.64,10.359-6.185,13.757c-3.545,3.397-8.056,5.095-13.533,5.095
		c-6.408,0-11.497-2.343-15.268-7.031c-3.773-4.688-5.658-11.027-5.658-19.021c0-8.152,1.886-14.623,5.658-19.412
		c3.771-4.789,8.862-7.184,15.268-7.184c5.415,0,9.9,1.602,13.455,4.806c3.554,3.205,5.643,7.547,6.263,13.027h-9.517
		c-0.311-2.695-1.371-4.835-3.183-6.42c-1.811-1.585-4.114-2.377-6.908-2.377c-3.54,0-6.313,1.546-8.321,4.636
		c-2.008,3.091-3.012,7.377-3.012,12.856c0,5.344,0.999,9.528,2.996,12.551c1.998,3.023,4.775,4.534,8.336,4.534
		c2.793,0,5.096-0.883,6.908-2.649c1.811-1.767,2.872-4.155,3.183-7.168C134.437,51.545,143.955,51.545,143.955,51.545z"/>
	<path style="fill:#F4F4F4;" d="M189.807,51.545c-0.578,5.774-2.64,10.359-6.185,13.757c-3.545,3.397-8.056,5.095-13.533,5.095
		c-6.408,0-11.497-2.343-15.268-7.031c-3.772-4.688-5.658-11.027-5.658-19.021c0-8.152,1.886-14.623,5.658-19.412
		c3.771-4.789,8.862-7.184,15.268-7.184c5.415,0,9.9,1.602,13.455,4.806c3.554,3.205,5.643,7.547,6.263,13.027h-9.517
		c-0.311-2.695-1.371-4.835-3.183-6.42c-1.811-1.585-4.114-2.377-6.908-2.377c-3.54,0-6.313,1.546-8.321,4.636
		c-2.008,3.091-3.012,7.377-3.012,12.856c0,5.344,0.999,9.528,2.996,12.551c1.998,3.023,4.775,4.534,8.336,4.534
		c2.793,0,5.096-0.883,6.908-2.649c1.811-1.767,2.872-4.155,3.183-7.168C180.29,51.545,189.807,51.545,189.807,51.545z"/>
</g>
<g>
	<path style="fill:#F4F4F4;" d="M230.169,53.985v16.278l-3.744-0.014v-1.555h-14.66v1.555l-3.709,0.014V57.914
		c0-1.222-0.035-2.038-0.07-2.778c-0.91,0.704-1.47,1.037-3.078,1.927c-0.56-1.445-1.05-2.186-2.169-3.409
		c2.344-0.926,3.394-1.556,4.759-2.815c1.014-0.963,1.68-1.815,2.204-2.926l-6.438-0.007l-0.03-3.393l2.585-0.007
		c-0.665-0.778-1.365-1.333-2.449-2.075c2.379-2.149,3.779-4.334,4.339-6.78l3.673,0.704c-0.245,0.482-0.385,0.852-0.49,1.038
		c0,0.037-0.069,0.185-0.175,0.371c-0.105,0.296-0.175,0.482-0.315,0.741l8.809-0.01v3.381l-4.82,0.001
		c0,0.852-0.069,1.593-0.175,2.631l5.614,0.007l-0.029,3.393l-4.746,0.007c1.75,1.222,3.254,2.408,4.514,3.593l-1.925,2.482
		L230.169,53.985z M210.715,44.504c0.14-0.778,0.175-1.074,0.245-2.631h-2.52c-0.839,1.222-0.979,1.408-2.134,2.631H210.715z
		 M216.663,53.987c-1.085-1.296-2.939-3.037-4.199-4.001c-1.049,1.852-1.645,2.631-3.043,3.964c0.525,0.037,1.12,0.037,2.169,0.037
		C211.59,53.987,216.663,53.987,216.663,53.987z M211.8,59.655h14.626v-2.334H211.8V59.655z M211.8,65.286h14.626v-2.445H211.8
		V65.286z M220.722,52.03l0.017-13.762h12.595l0.035,13.745L220.722,52.03z M224.326,48.69h5.423v-7.002h-5.423V48.69z"/>
	<path style="fill:#F4F4F4;" d="M247.52,36.65c-0.28,0.445-0.28,0.445-0.525,1c-0.105,0.185-0.105,0.185-0.49,0.926
		c-0.245,0.407-0.245,0.407-1.12,2.075c-0.49,0.926-0.665,1.185-1.26,2.111c0.7-0.037,0.7-0.037,1.155-0.074
		c2.134-0.185,2.169-0.185,3.919-0.371c-0.176-0.26-0.28-0.482-0.35-0.63c-0.595-1-0.734-1.185-1.435-2.222l2.869-1.445
		c1.784,2.334,2.939,4.223,4.759,7.594l-3.149,1.964c-0.28-0.629-0.595-1.296-0.945-2c-3.673,0.482-7.943,0.926-11.686,1.26
		l-0.805-3.742c1.085-0.296,1.294-0.445,2.134-1.334c1.574-2.445,2.344-4.038,2.904-5.89L247.52,36.65z M239.793,48.142h13.221
		c-0.07,1.038-0.105,1.547-0.105,3.363V66.25c0,1.592-0.28,2.445-0.979,2.889c-0.736,0.482-1.82,0.704-3.674,0.704
		c-0.315,0-0.839,0-1.47-0.037l0.005-3.641c0,0,0.79,0.196,1.605,0.122c0.697-0.063,0.84-0.111,0.91-0.668v-3.075h-5.879v7.718
		h-3.638L239.793,48.142z M243.392,53.839h5.913v-2.297h-5.913L243.392,53.839L243.392,53.839z M243.392,59.322h5.913v-2.297h-5.913
		L243.392,59.322L243.392,59.322z M258.996,47.134c0,0.926,0.315,1.074,2.484,1.074c2.904,0,3.673-0.074,4.129-0.482
		c0.385-0.371,0.49-1.111,0.595-3.89c1.189,0.593,2.275,0.926,3.499,1.149c-0.28,3.482-0.595,4.742-1.4,5.594
		c-0.91,0.927-2.169,1.149-6.823,1.149c-2.869,0-3.883-0.111-4.793-0.519c-0.979-0.371-1.365-1.111-1.365-2.445v-9.224
		c0-1.408-0.034-2.334-0.175-3.186h4.024c-0.141,0.815-0.176,1.556-0.176,3v1.705c1.855-0.593,2.66-0.926,3.884-1.556
		c1.959-1,2.974-1.63,4.058-2.594l2.59,3.409c-0.734,0.334-0.734,0.334-2.449,1.222c-2.24,1.222-4.899,2.26-8.083,3.26V47.134z
		 M258.996,64.804c0,0.629,0.211,0.852,0.875,1c0.56,0.148,1.189,0.185,2.483,0.185c2.344,0,3.185-0.185,3.499-0.741
		c0.315-0.482,0.526-2.112,0.56-4.26c1.05,0.556,2.31,1.001,3.569,1.26c-0.244,3.482-0.629,4.89-1.539,5.964
		c-0.944,1.112-2.169,1.371-6.578,1.371c-3.464,0-4.549-0.148-5.458-0.741c-0.805-0.519-1.085-1.186-1.085-2.408v-9.744
		c0-1.705-0.034-2.408-0.175-3.298h4.024c-0.141,0.778-0.176,1.445-0.176,3.075v1.223c3.22-0.926,5.914-2.26,8.083-4.001l2.66,3.261
		c-1.014,0.593-4.759,2.371-5.809,2.742c-1.154,0.482-2.799,1-4.934,1.63L258.996,64.804L258.996,64.804z"/>
	<path style="fill:#F4F4F4;" d="M288.489,52.097c-1.715,3.667-1.855,4.001-3.254,6.557c-1.365,2.482-2.24,3.853-3.674,6.002
		c2.87-0.26,2.87-0.26,7.208-0.629c1.854-0.148,5.423-0.705,8.012-1.223c-1.224-2.075-2.169-3.445-4.268-6.335l3.324-1.741
		c3.429,4.594,5.563,7.964,8.468,13.484l-3.499,2.149c-1.155-2.297-1.435-2.853-2.065-4.074c-1.889,0.407-3.464,0.666-7.103,1.148
		c-3.534,0.518-5.773,0.741-11.547,1.149c-1.714,0.148-2.274,0.222-3.813,0.482l-0.98-4.26c1.47-0.333,2.31-0.852,3.185-1.927
		c2.484-3.927,3.954-6.669,5.703-10.78l-10.742,0.222v-4.26h31.07v4.26L288.489,52.097z"/>
	<rect x="276.767" y="38.168" style="fill:#F4F4F4;" width="24.668" height="4.223"/>
	<path style="fill:#F4F4F4;" d="M318.924,47.531c-0.105,0.334-0.525,2.778-1.294,7.336c-0.421,2.482-0.56,3.149-1.365,6.445
		c0.805-0.26,1.329-0.444,2.835-1.037l0.034,3.742c-3.114,1.222-6.788,2.482-9.202,3.186c-0.419,0.111-0.979,0.296-1.399,0.482
		l-0.91-4.26c0.91-0.037,2.764-0.444,5.319-1.111c1.224-4.927,2.379-12.3,2.483-15.782L318.924,47.531z M313.047,41.864
		c-0.736-2-0.875-2.26-2.065-4.26l3.289-1.482c1.085,1.778,1.574,2.742,2.309,4.705l-2.59,1.038l5.249,0.003v3.702h-11.162v-3.702
		L313.047,41.864z M311.752,46.865c0.736,3.371,1.26,7.447,1.609,12.596l-3.185,1.074c-0.28-5.297-0.77-9.447-1.574-13.003
		L311.752,46.865z M331.346,51.533c-0.28,0.741-0.734,1.741-1.26,2.778l8.916-0.005l0.007,12.748c0,2.482-0.7,3.037-3.919,3.037
		h-0.665l-0.141-3.966c0,0,1.26,0.312,1.26-0.368v-8.149h-2.03l0.009,11.558h-3.139l0.017-11.558h-1.89l-0.006,11.558h-3.124
		l0.016-11.558h-1.854l0.002,12.785h-3.535V54.307l6.261,0.005c0.526-1.038,0.84-1.852,1.155-2.778l-7.956,0.019l-0.02-3.513h20.396
		l-0.018,3.513L331.346,51.533z M334.845,42.604l0.002-4.893l3.741,0.009l-0.034,8.154l-17.835,0.023l0.001-8.252l3.495,0.069
		l-0.006,4.89h3.394l0.002-6.482l3.635,0.022l0.002,6.462L334.845,42.604L334.845,42.604z"/>
	<path style="fill:#F4F4F4;" d="M360.733,63.212l14.136-0.02v4.026h-31.841v-4.026l13.576,0.02V43.393h-11.567l-0.059-3.957h27.927
		v3.957h-12.171V63.212z"/>
	<path style="fill:#F4F4F4;" d="M389.176,37.131c-0.385,0.926-0.49,1.185-0.805,2.075c-0.35,1-1.155,2.964-2.379,5.927l0.011,25.117
		h-3.699l-0.021-15.151c0-0.963,0-1.038,0.105-4.223c-1.224,1.778-2.099,2.889-3.359,4.26c-0.49-1.705-0.979-2.778-1.854-4.334
		c2.59-2.482,4.863-5.964,6.647-10.225c0.771-1.926,1.26-3.445,1.47-4.89L389.176,37.131z M399.323,49.801l9.167,0.01v3.55
		l-9.167-0.005v4.742l9.237,0.003v3.582l-9.237,0.009l-0.003,8.705h-3.755l-0.021-25.339h-0.665
		c-1.609,3.409-3.359,6.149-5.738,9.039c-0.84-1.519-1.329-2.186-2.52-3.482c2.66-2.889,4.374-5.705,5.879-9.447
		c0.875-2.223,1.399-4.075,1.574-5.372l3.954,1.222c-0.35,0.889-0.455,1.223-0.7,1.964c-0.525,1.556-0.595,1.778-0.875,2.482
		l13.296-0.014v3.611l-10.427-0.005L399.323,49.801L399.323,49.801z"/>
	<path style="fill:#F4F4F4;" d="M426.715,61.915l-10.322,0.007v-3.531l10.322,0.004v-3.037l-9.202,0.371l-0.734-3.631
		c1.259-0.185,1.959-0.518,2.833-1.185c0.736-0.741,1.47-1.519,2.24-2.445l-4.619,0.002v-1.743h-3.367v-7.83l12.535,0.014
		c-0.35-0.704-0.56-1.038-1.19-2.038l3.99-1.482c0.979,1.705,1.049,1.889,1.714,3.52l12.984-0.014v7.83l-3.396,0.001v1.75
		l-4.583-0.01c2.344,2.075,2.974,2.704,6.228,6.187l-2.835,2.556c-1.014-1.297-1.504-1.927-1.959-2.445
		c-3.639,0.26-3.639,0.26-6.789,0.407v3.222l10.848-0.004v3.531l-10.848-0.007v3.519H444.7v3.592h-31.595v-3.592h13.611
		L426.715,61.915L426.715,61.915z M440.257,42.466h-22.744v2.589h22.744V42.466z M426.435,48.468
		c-1.224,1.482-2.484,2.815-3.393,3.631c7.417-0.185,8.152-0.222,11.476-0.482c-1.049-1.038-1.085-1.074-1.959-1.816l2.134-1.333
		C434.693,48.468,426.435,48.468,426.435,48.468z"/>
</g>
</svg>
