<?xml version="1.0" encoding="utf-8"?>
<!-- Generator: Adobe Illustrator 21.0.0, SVG Export Plug-In . SVG Version: 6.00 Build 0)  -->
<svg version="1.1" id="Layer_1" xmlns="http://www.w3.org/2000/svg" xmlns:xlink="http://www.w3.org/1999/xlink" x="0px" y="0px"
	 viewBox="0 0 435.7 85.2" style="enable-background:new 0 0 435.7 85.2;" xml:space="preserve">
<style type="text/css">
	.st0{fill:#F4F4F4;}
	.st1{filter:url(#Adobe_OpacityMaskFilter);}
	.st2{fill:#FFFFFF;}
	.st3{mask:url(#mask-2_2_);fill:none;}
	.st4{fill:url(#Stroke-4_1_);stroke:url(#Stroke-4_2_);stroke-width:2.39;}
	.st5{filter:url(#Adobe_OpacityMaskFilter_1_);}
	.st6{mask:url(#mask-6_2_);fill:url(#Fill-6_1_);}
	.st7{fill:url(#Stroke-9_1_);stroke:url(#Stroke-9_2_);stroke-width:0.8763;}
	.st8{filter:url(#Adobe_OpacityMaskFilter_2_);}
	.st9{mask:url(#mask-11_2_);fill:url(#Fill-11_1_);stroke:url(#Fill-11_2_);stroke-width:0.8763;}
	.st10{filter:url(#Adobe_OpacityMaskFilter_3_);}
	.st11{mask:url(#mask-13_2_);fill:url(#Fill-16_1_);stroke:url(#Fill-16_2_);stroke-width:0.8763;}
</style>
<title>180*180 copy 9</title>
<desc>Created with Sketch.</desc>
<g>
	<path class="st0" d="M129.2,28.1v41H118v-41h-9.3v-9.7h29.9v9.7H129.2z"/>
	<path class="st0" d="M143,69.1V18.4h24.5v10.1h-13.5v10h12.5v9.5h-12.5v10.9h14.4v10.3H143z"/>
	<path class="st0" d="M197.5,69.1l-2.1-9.2h-11.4l-2.1,9.2h-11.5l12.3-50.7h14.4l12.2,50.7H197.5z M189.9,29.4h-0.3L185.3,51h8.7
		L189.9,29.4z"/>
	<path class="st0" d="M248.9,69.1l0.4-34.8H249l-8.5,34.8h-8.1l-8.2-34.8H224l0.4,34.8h-10.4V18.4h14.5l8.2,32.7h0.3l7.9-32.7h15.3
		v50.7H248.9z"/>
	<path class="st0" d="M311.7,69.1h-12.2l-6.2-34h-0.1l-6.2,34h-12.2l-9.5-50.7h11.7l5.2,35.3h0.3l5.5-35.3h11.1l5.7,35.3h0.2
		l5.2-35.3h11.1L311.7,69.1z"/>
	<path class="st0" d="M347.1,69.1l-2.1-9.2h-11.4l-2.1,9.2h-11.5l12.3-50.7h14.4l12.2,50.7H347.1z M339.5,29.4h-0.3L335,51h8.7
		L339.5,29.4z"/>
	<path class="st0" d="M384.7,69.1l-6.8-20.2h-3.4v20.2h-11V18.4h16.2c4.9,0,8.7,1.3,11.4,3.8c2.7,2.6,4.1,6.4,4.1,11.4
		c0,1.9-0.2,3.5-0.6,5c-0.4,1.5-1,2.7-1.7,3.8c-0.7,1.1-1.5,1.9-2.3,2.6c-0.9,0.7-1.7,1.1-2.5,1.4l8.6,22.6H384.7z M384,34.3
		c0-1.3-0.2-2.3-0.5-3.2c-0.4-0.8-0.8-1.5-1.4-1.9c-0.6-0.5-1.2-0.8-1.9-1c-0.7-0.2-1.4-0.3-2-0.3h-3.6v12.8h3.4
		c1.6,0,3-0.5,4.3-1.5C383.4,38.2,384,36.6,384,34.3z"/>
	<path class="st0" d="M402.3,69.1V18.4h24.5v10.1h-13.5v10h12.5v9.5h-12.5v10.9h14.4v10.3H402.3z"/>
</g>
<title>180*180</title>
<desc>Created with Sketch.</desc>
<g id="CC-回复样式-Copy-2" transform="translate(-720.000000, -122.000000)">
	<g id="Group" transform="translate(731.000000, 122.000000)">
		<g id="Group-3" transform="translate(0.000000, 1.246097)">
			<g id="Clip-2">
			</g>
			<defs>
				<filter id="Adobe_OpacityMaskFilter" filterUnits="userSpaceOnUse" x="-7" y="1.8" width="76.8" height="77.8">
					<feColorMatrix  type="matrix" values="1 0 0 0 0  0 1 0 0 0  0 0 1 0 0  0 0 0 1 0"/>
				</filter>
			</defs>
			<mask maskUnits="userSpaceOnUse" x="-7" y="1.8" width="76.8" height="77.8" id="mask-2_2_">
				<g class="st1">
					<path id="path-1_2_" class="st2" d="M31.1,1.8c-5.3,0.1-10.3,1.1-14.9,3.1c-4.6,2-8.7,4.8-12.1,8.4c-3.5,3.5-6.2,7.7-8.1,12.4
						c-2,4.7-2.9,9.7-2.9,15.1c0.1,5.1,1.1,9.8,3,14.2c1.9,4.4,4.2,8.2,7.2,11.5c1,1.1,1.5,2.2,1.7,3.4C5,71,4.5,71.9,3.4,72.5
						c-2.1,1.2-4.7,2.1-8,2.6c-0.5,0.1,0.7,0.6,3.6,1.6c2.9,0.9,7.4,1.7,13.5,2.4c2.7,0.2,5.2,0.4,7.4,0.4c2.2,0.1,4.2,0.1,6,0
						c1.8-0.1,3.4-0.1,4.9-0.3c1.5-0.1,2.8-0.3,4.2-0.4c4.9-0.5,9.5-1.9,13.8-4.1c4.3-2.2,8-5,11.1-8.5c3.1-3.4,5.6-7.4,7.4-11.9
						c1.8-4.5,2.7-9.2,2.6-14.4c-0.1-5.3-1.1-10.4-3.2-15c-2.1-4.7-4.8-8.7-8.4-12.2C54.8,9.3,50.7,6.6,46,4.6
						c-4.5-1.9-9.4-2.9-14.5-2.9C31.4,1.8,31.2,1.8,31.1,1.8"/>
				</g>
			</mask>
			<path id="Fill-1" class="st3" d="M31.1,1.8c-5.3,0.1-10.3,1.1-14.9,3.1c-4.6,2-8.7,4.8-12.1,8.4c-3.5,3.5-6.2,7.7-8.1,12.4
				c-2,4.7-2.9,9.7-2.9,15.1c0.1,5.1,1.1,9.8,3,14.2c1.9,4.4,4.2,8.2,7.2,11.5c1,1.1,1.5,2.2,1.7,3.4C5,71,4.5,71.9,3.4,72.5
				c-2.1,1.2-4.7,2.1-8,2.6c-0.5,0.1,0.7,0.6,3.6,1.6c2.9,0.9,7.4,1.7,13.5,2.4c2.7,0.2,5.2,0.4,7.4,0.4c2.2,0.1,4.2,0.1,6,0
				c1.8-0.1,3.4-0.1,4.9-0.3c1.5-0.1,2.8-0.3,4.2-0.4c4.9-0.5,9.5-1.9,13.8-4.1c4.3-2.2,8-5,11.1-8.5c3.1-3.4,5.6-7.4,7.4-11.9
				c1.8-4.5,2.7-9.2,2.6-14.4c-0.1-5.3-1.1-10.4-3.2-15c-2.1-4.7-4.8-8.7-8.4-12.2C54.8,9.3,50.7,6.6,46,4.6
				c-4.5-1.9-9.4-2.9-14.5-2.9C31.4,1.8,31.2,1.8,31.1,1.8"/>
		</g>
		
			<linearGradient id="Stroke-4_1_" gradientUnits="userSpaceOnUse" x1="-1071.6003" y1="843.5093" x2="-1071.6003" y2="843.361" gradientTransform="matrix(518.0765 0 0 -524.3911 555202.4375 442331.7812)">
			<stop  offset="0" style="stop-color:#9CEC64"/>
			<stop  offset="0.1872" style="stop-color:#8DE050"/>
			<stop  offset="1" style="stop-color:#7DD83D"/>
		</linearGradient>
		
			<linearGradient id="Stroke-4_2_" gradientUnits="userSpaceOnUse" x1="-1071.6003" y1="843.5776" x2="-1071.6003" y2="843.2927" gradientTransform="matrix(518.0765 0 0 -524.3911 555202.4375 442331.7812)">
			<stop  offset="0" style="stop-color:#AAFF70"/>
			<stop  offset="1" style="stop-color:#8ADA36"/>
		</linearGradient>
		<path id="Stroke-4" class="st4" d="M31.1,3c5.3-0.1,10.3,0.9,15,2.9c4.7,2,8.7,4.7,12.3,8.2c3.5,3.5,6.3,7.5,8.4,12.2
			c2.1,4.7,3.1,9.7,3.2,15c0.1,5.1-0.8,9.9-2.6,14.4c-1.8,4.5-4.3,8.4-7.4,11.9c-3.1,3.5-6.9,6.3-11.1,8.5
			c-4.3,2.2-8.9,3.6-13.8,4.1c-1.3,0.2-2.7,0.3-4.2,0.4c-1.5,0.1-3.1,0.2-4.9,0.3c-1.8,0.1-3.8,0.1-6,0c-2.2-0.1-4.6-0.2-7.4-0.4
			C6.4,79.7,1.9,78.9-1,77.9c-2.9-0.9-4.1-1.5-3.6-1.6c3.3-0.5,5.9-1.4,8-2.6C4.5,73.1,5,72.2,4.8,71c-0.2-1.2-0.7-2.3-1.7-3.4
			c-2.9-3.3-5.3-7.1-7.2-11.5S-6.9,47.1-7,42c-0.1-5.3,0.9-10.4,2.9-15.1c2-4.7,4.7-8.8,8.1-12.4c3.5-3.5,7.5-6.3,12.1-8.4
			C20.8,4.1,25.7,3.1,31.1,3z"/>
		<g id="Group-8" transform="translate(94.464286, 229.333871)">
			<g id="Clip-7">
			</g>
			<defs>
				<filter id="Adobe_OpacityMaskFilter_1_" filterUnits="userSpaceOnUse" x="-86.3" y="-192.4" width="9.2" height="9.2">
					<feColorMatrix  type="matrix" values="1 0 0 0 0  0 1 0 0 0  0 0 1 0 0  0 0 0 1 0"/>
				</filter>
			</defs>
			<mask maskUnits="userSpaceOnUse" x="-86.3" y="-192.4" width="9.2" height="9.2" id="mask-6_2_">
				<g class="st5">
					<path id="path-5_2_" class="st2" d="M-85-191.1c-0.9,0.9-1.3,2-1.3,3.3c0,1.3,0.4,2.4,1.3,3.3c0.9,0.9,2,1.4,3.3,1.4
						c1.3,0,2.4-0.4,3.2-1.4c0.9-0.9,1.3-2,1.3-3.3c0-1.3-0.4-2.4-1.3-3.3c-0.9-0.9-2-1.3-3.2-1.3C-83-192.4-84.1-192-85-191.1"/>
				</g>
			</mask>
			
				<linearGradient id="Fill-6_1_" gradientUnits="userSpaceOnUse" x1="-1165.0729" y1="613.6626" x2="-1165.0729" y2="613.5143" gradientTransform="matrix(61.8552 0 0 -62.2299 71984.1172 37995.7891)">
				<stop  offset="0" style="stop-color:#FFFFFF"/>
				<stop  offset="1" style="stop-color:#000000"/>
			</linearGradient>
			<path id="Fill-6" class="st6" d="M-85-191.1c-0.9,0.9-1.3,2-1.3,3.3c0,1.3,0.4,2.4,1.3,3.3c0.9,0.9,2,1.4,3.3,1.4
				c1.3,0,2.4-0.4,3.2-1.4c0.9-0.9,1.3-2,1.3-3.3c0-1.3-0.4-2.4-1.3-3.3c-0.9-0.9-2-1.3-3.2-1.3C-83-192.4-84.1-192-85-191.1"/>
		</g>
		
			<linearGradient id="Stroke-9_1_" gradientUnits="userSpaceOnUse" x1="-1070.6086" y1="842.9965" x2="-1070.6086" y2="842.8482" gradientTransform="matrix(61.8552 0 0 -62.2299 66235.4766 52496.5469)">
			<stop  offset="0" style="stop-color:#04641C"/>
			<stop  offset="1" style="stop-color:#1D7825"/>
		</linearGradient>
		
			<linearGradient id="Stroke-9_2_" gradientUnits="userSpaceOnUse" x1="-1070.6086" y1="843.0538" x2="-1070.6086" y2="842.791" gradientTransform="matrix(61.8552 0 0 -62.2299 66235.4766 52496.5469)">
			<stop  offset="0" style="stop-color:#1D7825"/>
			<stop  offset="1" style="stop-color:#389230"/>
		</linearGradient>
		<path id="Stroke-9" class="st7" d="M8.2,41.5c0,1.3,0.4,2.4,1.3,3.3c0.9,0.9,2,1.4,3.3,1.4c1.3,0,2.4-0.4,3.2-1.4
			c0.9-0.9,1.3-2,1.3-3.3c0-1.3-0.4-2.4-1.3-3.3c-0.9-0.9-2-1.3-3.2-1.3c-1.3,0-2.4,0.4-3.3,1.3C8.6,39.1,8.2,40.2,8.2,41.5z"/>
		<g id="Group-13" transform="translate(226.714286, 229.333871)">
			<g id="Clip-12">
			</g>
			<defs>
				<filter id="Adobe_OpacityMaskFilter_2_" filterUnits="userSpaceOnUse" x="-199.9" y="-192.8" width="10" height="10.1">
					<feColorMatrix  type="matrix" values="1 0 0 0 0  0 1 0 0 0  0 0 1 0 0  0 0 0 1 0"/>
				</filter>
			</defs>
			<mask maskUnits="userSpaceOnUse" x="-199.9" y="-192.8" width="10" height="10.1" id="mask-11_2_">
				<g class="st8">
					<path id="path-10_2_" class="st2" d="M-198.1-191.1c-0.9,0.9-1.3,2-1.3,3.3c0,1.3,0.4,2.4,1.3,3.3c0.9,0.9,2,1.4,3.3,1.4
						c1.3,0,2.3-0.4,3.2-1.4c0.9-0.9,1.3-2,1.3-3.3c0-1.3-0.4-2.4-1.3-3.3c-0.9-0.9-2-1.3-3.2-1.3
						C-196.2-192.4-197.3-192-198.1-191.1"/>
				</g>
			</mask>
			
				<linearGradient id="Fill-11_1_" gradientUnits="userSpaceOnUse" x1="-1299.0968" y1="613.6626" x2="-1299.0968" y2="613.5143" gradientTransform="matrix(61.8552 0 0 -62.2299 80161.0469 37995.7891)">
				<stop  offset="0" style="stop-color:#04641C"/>
				<stop  offset="1" style="stop-color:#1D7825"/>
			</linearGradient>
			
				<linearGradient id="Fill-11_2_" gradientUnits="userSpaceOnUse" x1="-1299.0968" y1="613.7198" x2="-1299.0968" y2="613.457" gradientTransform="matrix(61.8552 0 0 -62.2299 80161.0469 37995.7891)">
				<stop  offset="0" style="stop-color:#1D7825"/>
				<stop  offset="1" style="stop-color:#389230"/>
			</linearGradient>
			<path id="Fill-11" class="st9" d="M-198.1-191.1c-0.9,0.9-1.3,2-1.3,3.3c0,1.3,0.4,2.4,1.3,3.3c0.9,0.9,2,1.4,3.3,1.4
				c1.3,0,2.3-0.4,3.2-1.4c0.9-0.9,1.3-2,1.3-3.3c0-1.3-0.4-2.4-1.3-3.3c-0.9-0.9-2-1.3-3.2-1.3C-196.2-192.4-197.3-192-198.1-191.1
				"/>
		</g>
		<g id="Group-18" transform="translate(358.964286, 229.333871)">
			<g id="Clip-17">
			</g>
			<defs>
				<filter id="Adobe_OpacityMaskFilter_3_" filterUnits="userSpaceOnUse" x="-313.1" y="-192.8" width="10" height="10.1">
					<feColorMatrix  type="matrix" values="1 0 0 0 0  0 1 0 0 0  0 0 1 0 0  0 0 0 1 0"/>
				</filter>
			</defs>
			<mask maskUnits="userSpaceOnUse" x="-313.1" y="-192.8" width="10" height="10.1" id="mask-13_2_">
				<g class="st10">
					<path id="path-12_2_" class="st2" d="M-311.3-191.1c-0.9,0.9-1.3,2-1.3,3.3c0,1.3,0.4,2.4,1.3,3.3c0.9,0.9,2,1.4,3.3,1.4
						c1.3,0,2.4-0.4,3.2-1.4c0.9-0.9,1.3-2,1.3-3.3c0-1.3-0.4-2.4-1.3-3.3c-0.9-0.9-2-1.3-3.2-1.3
						C-309.4-192.4-310.4-192-311.3-191.1"/>
				</g>
			</mask>
			
				<linearGradient id="Fill-16_1_" gradientUnits="userSpaceOnUse" x1="-1433.1187" y1="613.6626" x2="-1433.1187" y2="613.5143" gradientTransform="matrix(61.8552 0 0 -62.2299 88337.8281 37995.7891)">
				<stop  offset="0" style="stop-color:#04641C"/>
				<stop  offset="1" style="stop-color:#1D7825"/>
			</linearGradient>
			
				<linearGradient id="Fill-16_2_" gradientUnits="userSpaceOnUse" x1="-1433.1187" y1="613.7198" x2="-1433.1187" y2="613.457" gradientTransform="matrix(61.8552 0 0 -62.2299 88337.8281 37995.7891)">
				<stop  offset="0" style="stop-color:#1D7825"/>
				<stop  offset="1" style="stop-color:#389230"/>
			</linearGradient>
			<path id="Fill-16" class="st11" d="M-311.3-191.1c-0.9,0.9-1.3,2-1.3,3.3c0,1.3,0.4,2.4,1.3,3.3c0.9,0.9,2,1.4,3.3,1.4
				c1.3,0,2.4-0.4,3.2-1.4c0.9-0.9,1.3-2,1.3-3.3c0-1.3-0.4-2.4-1.3-3.3c-0.9-0.9-2-1.3-3.2-1.3C-309.4-192.4-310.4-192-311.3-191.1
				"/>
		</g>
	</g>
</g>
</svg>
